<svg width="188" height="206" viewBox="0 0 188 206" fill="none" xmlns="http://www.w3.org/2000/svg">
<path fill-rule="evenodd" clip-rule="evenodd" d="M79.1516 0.106881C53.7383 2.562 32.3074 10.397 17.9918 22.4668C7.8615 31.0082 1.12142 41.4902 0.217042 50.1102C-0.213664 54.216 0.601507 56.3791 2.8774 57.1695C5.26532 57.9989 182.465 57.9778 184.855 57.1478C187.08 56.3753 187.644 55.2474 187.644 51.5713C187.644 44.7173 183.122 35.9857 175.447 28.0238C162.187 14.2661 144.18 5.75063 119.122 1.38645C113.412 0.392373 109.845 0.17838 96.8258 0.0494479C88.3014 -0.0345203 80.348 -0.00904919 79.1516 0.106881ZM108.645 64.8019C101.308 66.6481 96.4978 72.2686 95.1247 80.602C93.8896 88.0974 95.8453 94.8517 100.602 99.5187C104.384 103.231 107.847 104.594 113.412 104.561C122.286 104.508 127.758 99.4207 128.222 90.792C128.486 85.8937 127.477 83.5951 124.232 81.6991C122.389 80.6221 121.497 80.4818 117.37 80.6156C111.498 80.8068 110.149 81.7576 110.149 85.7073C110.149 87.7415 110.419 88.4078 111.675 89.4848C112.514 90.2037 113.738 90.7958 114.394 90.8001C116.104 90.812 117.159 91.6262 116.772 92.6333C116.212 94.0846 111.931 93.7845 109.99 92.1572C107.676 90.2178 107.001 88.1543 107.249 83.7777C107.435 80.4986 107.673 79.7759 109.032 78.3631C111.649 75.6425 113.808 75.247 118.048 76.7119C123.271 78.5158 126.266 77.3164 127.059 73.1045C127.898 68.6525 122.554 64.8512 114.947 64.4894C112.607 64.3778 109.772 64.5186 108.645 64.8019ZM2.95301 65.6465C2.0209 66.1048 0.986513 67.0729 0.654781 67.7982C0.261599 68.658 0.0364629 74.5092 0.00872803 84.6087C-0.0385844 101.676 -0.0130136 101.822 3.36466 103.562C4.74325 104.272 6.45084 104.401 12.4682 104.25C19.4357 104.075 20.029 103.974 22.4702 102.545C26.024 100.463 27.9095 97.4899 28.1983 93.5093C28.4729 89.7324 27.6746 87.0611 25.6162 84.866L24.0875 83.2359L25.3802 80.692C28.4811 74.5899 25.4481 67.0891 19.1784 65.3545C15.9481 64.4606 4.96352 64.6589 2.95301 65.6465ZM33.0714 66.3702L31.2953 67.951V81.6741C31.2953 94.6886 31.3556 95.5083 32.4661 97.5636C35.0286 102.307 39.3014 104.5 45.9692 104.494C51.2916 104.49 55.125 103.037 57.9061 99.9705C60.8014 96.7776 61.0266 95.2889 60.834 80.5869L60.6616 67.4022L59.1357 66.0956C57.986 65.1107 56.9729 64.7889 55.0239 64.7889C52.2036 64.7889 50.4122 65.9553 49.4801 68.3974C49.199 69.1331 48.9695 74.6701 48.9695 80.7017C48.9695 88.9637 48.7911 91.9112 48.2473 92.6523C47.3978 93.8094 44.7027 93.9622 44.0218 92.8912C43.7613 92.4816 43.5427 87.3926 43.5367 81.5826C43.5302 75.7725 43.2735 70.1158 42.9657 69.0117C41.7578 64.68 36.5355 63.2856 33.0714 66.3702ZM67.6666 65.7949C66.7334 66.3773 65.6936 67.6444 65.3554 68.6108C64.5956 70.7821 64.5043 98.7711 65.2509 100.727C66.474 103.932 69.9789 105.427 73.1608 104.103C75.9539 102.94 76.613 101.464 76.8061 95.9384C77.0236 89.7009 77.9307 89.449 79.7329 95.1258C82.4536 103.695 88.4563 107.172 92.7759 102.68C95.0295 100.337 94.8283 97.5062 92.1413 93.7466C90.9791 92.1198 89.6049 90.0059 89.0872 89.0482C88.1671 87.345 88.1747 87.2772 89.4331 85.9348C93.8728 81.1979 93.9745 72.8656 89.6424 68.769C86.2321 65.5446 84.7437 65.101 76.7044 64.9103C70.178 64.7559 69.1746 64.8539 67.6666 65.7949ZM134.013 65.8236C131.32 67.4586 131.087 68.9667 131.087 84.6964C131.087 100.81 131.298 101.915 134.692 103.519C136.244 104.253 138.023 104.381 144.668 104.238C152.312 104.074 152.83 103.994 154.129 102.777C155.949 101.072 156.358 98.9515 155.337 96.517C154.262 93.9535 151.887 92.9589 146.84 92.9589H142.982L143.152 91.1983L143.322 89.4377L147.21 89.1668C151.526 88.8661 153.089 87.943 153.659 85.3579C154.049 83.588 152.832 80.8523 151.364 80.1968C150.829 79.9579 148.801 79.6237 146.857 79.4541C143.494 79.1599 143.314 79.0722 143.151 77.655L142.978 76.1653H146.839C151.887 76.1653 154.261 75.1712 155.337 72.6072C156.411 70.047 155.912 67.8903 153.845 66.1579C152.255 64.8252 151.994 64.7889 143.96 64.7911C136.81 64.7927 135.483 64.9303 134.013 65.8236ZM161.162 65.8204C158.418 67.5317 158.187 69.2089 158.379 86.0421L158.549 101.066L160.282 102.791C161.724 104.226 162.432 104.516 164.501 104.516C168.935 104.516 170.777 101.565 170.782 94.4487C170.785 91.662 170.968 90.792 171.553 90.792C172.022 90.792 172.461 91.6143 172.679 92.9015C173.157 95.7147 175.765 101.067 177.376 102.538C180.253 105.166 183.807 105.301 186.242 102.875C188.854 100.273 188.582 97.5717 185.245 93.0017C184.249 91.6376 183.044 89.7583 182.568 88.826C181.748 87.2209 181.762 87.0779 182.828 86.1174C184.505 84.6065 186.034 81.2917 186.373 78.4308C186.978 73.3261 184.5 68.7311 179.81 66.2608C177.91 65.2597 176.508 65.062 170.242 64.9119C163.659 64.7548 162.721 64.8485 161.162 65.8204ZM15.1439 74.6484C16.0749 75.5759 15.9508 78.6426 14.942 79.6481C13.8256 80.7597 11.1174 80.7559 10.6883 79.6421C10.2451 78.4915 10.2674 74.8109 10.7209 74.3597C11.3289 73.7535 14.4499 73.9572 15.1439 74.6484ZM80.9462 75.7319C82.0654 76.8468 81.738 79.7992 80.3898 80.7391C78.8323 81.8263 76.9121 81.8199 76.4907 80.7256C76.0475 79.5749 76.0697 75.8944 76.5233 75.4431C77.1313 74.8369 80.2523 75.0406 80.9462 75.7319ZM174.483 75.7319C175.426 76.6707 175.285 79.4373 174.236 80.5918C173.124 81.8155 170.48 81.8995 170.028 80.7256C169.585 79.5749 169.607 75.8944 170.061 75.4431C170.669 74.8369 173.79 75.0406 174.483 75.7319ZM16.1157 89.4339C17.7895 91.9784 15.9699 95.1258 12.825 95.1258C10.7519 95.1258 10.3582 94.4844 10.3582 91.1089C10.3582 88.2903 10.5496 88.0833 13.1556 88.0833C14.7637 88.0833 15.4261 88.3856 16.1157 89.4339ZM5.00104 109.046C3.99877 109.538 2.53046 110.916 1.73811 112.109L0.2975 114.277L0.141431 136.257C0.00601901 155.397 0.0990242 158.533 0.860374 160.525C3.64746 167.81 14.2019 168.56 18.2143 161.757C19.1246 160.213 19.3813 158.619 19.6032 153.134C19.7777 148.817 20.0964 146.333 20.4923 146.203C20.8317 146.091 22.1483 147.9 23.4175 150.223C30.3061 162.824 36.4583 167.844 42.8972 166.117C48.7808 164.538 52.1786 157.842 49.8581 152.396C49.4497 151.438 46.7371 147.85 43.8298 144.423C35.9286 135.11 36.0978 136.165 41.5703 130.337C46.5946 124.987 48.4871 121.748 48.815 117.934C49.4834 110.167 39.2274 105.054 33.1682 110.132C32.2366 110.913 29.6856 114.255 27.4994 117.559C23.2745 123.946 21.1362 126.342 20.1872 125.759C19.8386 125.544 19.6032 123.369 19.6032 120.369C19.6032 114.254 18.3464 111.286 14.9399 109.355C12.3274 107.874 7.68316 107.73 5.00104 109.046ZM60.6344 108.86C58.47 109.838 56.2186 112.542 55.4758 115.059C55.0782 116.403 54.939 124.127 55.0532 138.464L55.2234 159.863L56.583 161.869C58.5353 164.751 61.6188 166.332 65.2841 166.332C69.5102 166.332 72.4767 164.573 74.2588 161.01L75.6167 158.295L75.6048 137.139C75.5912 113.315 75.5493 113.034 71.5212 109.974C69.8337 108.692 68.8641 108.398 65.8878 108.269C63.6684 108.172 61.6584 108.398 60.6344 108.86ZM87.5808 109.287C85.4501 110.58 84.3489 111.913 83.4075 114.338C82.9594 115.492 82.7604 122.361 82.7397 137.381C82.7125 157.092 82.7897 158.954 83.7175 160.989C86.9902 168.166 97.2592 168.374 100.723 161.332C101.839 159.065 102.002 157.825 102.179 150.247C102.319 144.222 102.564 141.715 103.012 141.715C103.361 141.715 106.059 146.349 109.007 152.013C114.753 163.05 116.358 165.059 120.264 166.107C124.88 167.346 129.387 165.39 131.494 161.233C132.703 158.85 132.718 158.559 132.706 137.131C132.695 117.15 132.614 115.266 131.682 113.22C130.073 109.691 127.774 108.398 123.105 108.398C118.595 108.398 116.918 109.296 114.917 112.783C113.806 114.718 113.701 115.617 113.685 123.296C113.666 132.198 113.237 134.158 111.724 132.234C111.256 131.638 108.959 127.372 106.622 122.754C101.644 112.922 99.8222 110.264 97.2146 109.032C94.4743 107.736 89.9372 107.856 87.5808 109.287ZM157.251 108.984C147.623 111.563 140.238 119.382 138.209 129.146C137.34 133.325 137.467 142.557 138.444 146.295C141.668 158.624 151.484 166.116 164.574 166.241C178.363 166.373 187.603 158.121 187.795 145.507C187.922 137.153 183.907 132.627 175.177 131.281C166.08 129.878 160.242 132.871 160.245 138.934C160.247 143.242 162.732 145.712 167.754 146.398C172.304 147.019 171.149 150.382 166.386 150.382C161.6 150.382 158.994 148.68 156.851 144.152C155.414 141.116 155.12 135.996 156.168 132.236C156.995 129.267 160.619 125.751 163.705 124.924C166.639 124.137 168.678 124.426 173.521 126.32C177.968 128.057 180.225 127.836 183.025 125.386C187.494 121.478 186.593 115.487 180.995 111.883C179.014 110.607 176.38 109.505 174.051 108.977C169.428 107.93 161.173 107.933 157.251 108.984ZM1.36065 173.923C-2.4945 177.763 2.61689 187.272 11.7069 193.172C21.4668 199.506 38.266 203.565 60.9336 205.066C83.8475 206.583 118.977 206.209 136.525 204.262C158.662 201.806 172.14 197.325 180.455 189.656C187.042 183.581 189.635 176.399 186.211 173.716L184.778 172.593H93.7368H2.69524L1.36065 173.923Z" fill="#A0A0A0"/>
</svg>
